<?xml version="1.0" encoding="utf-8"?>
<!-- Generator: Adobe Illustrator 24.2.3, SVG Export Plug-In . SVG Version: 6.00 Build 0)  -->
<svg version="1.1" id="Layer_1" xmlns="http://www.w3.org/2000/svg" xmlns:xlink="http://www.w3.org/1999/xlink" x="0px" y="0px"
	 viewBox="0 0 250 150" style="enable-background:new 0 0 250 150;" xml:space="preserve">
<style type="text/css">
	.st0{fill-rule:evenodd;clip-rule:evenodd;fill:#E1F0FA;}
	.st1{opacity:0.9;}
	.st2{fill:url(#SVGID_1_);}
	.st3{opacity:0.85;}
	.st4{fill:url(#SVGID_2_);}
	.st5{fill:url(#SVGID_3_);}
</style>
<path class="st0" d="M190.6,71.7c0,1.5,0.1,3.1,0,4.6c-0.1,2.3-0.5,4.6-1.2,6.8c-1.1,3.4-4,6-7.6,6.7c-2.5,0.5-5.1,0.7-7.7,0.6
	c-1.9,0-3.9-0.2-5.8-0.7c-3.4-0.7-6.2-3.3-7.3-6.6c-0.6-1.7-1-3.5-1.1-5.3c-0.2-3.6-0.3-7.2-0.1-10.8c0.1-2.2,0.4-4.4,1.1-6.5
	c1.1-3.6,4.2-6.4,7.9-7c2.6-0.5,5.2-0.7,7.9-0.6c1.7,0.1,3.4,0.3,5,0.6c3.9,0.8,7.1,3.8,7.9,7.7c0.5,1.9,0.8,3.9,0.9,5.8
	C190.7,68.6,190.6,70.2,190.6,71.7z M183.9,71.7h0.1c-0.1-2.1-0.1-4.1-0.2-6.2c-0.1-1.2-0.3-2.4-0.8-3.5c-0.5-1.5-1.8-2.6-3.3-2.9
	c-2.3-0.4-4.7-0.5-7-0.3c-0.7,0-1.3,0.2-2,0.3c-1,0.2-2,0.8-2.6,1.7c-0.4,0.6-0.7,1.2-0.9,1.9c-0.4,1.4-0.6,2.9-0.6,4.3
	c-0.1,3.6-0.2,7.2,0.1,10.9c0.1,1.1,0.3,2.2,0.7,3.3c0.5,1.7,2,2.9,3.7,3.1c2.6,0.5,5.3,0.5,7.9,0.1c2.1-0.2,3.9-1.7,4.3-3.8
	c0.4-1.5,0.6-3,0.6-4.5S183.9,73.2,183.9,71.7L183.9,71.7z"/>
<path class="st0" d="M116.2,89.3v-0.9c0-7.6,0-15.1,0-22.6c0-1-0.1-2-0.2-2.9c-0.1-1.5-1.2-2.8-2.6-3.3c-0.8-0.3-1.7-0.5-2.6-0.6
	c-2-0.2-4-0.2-5.9,0.1c-0.7,0.1-1.4,0.3-2,0.5c-1.4,0.5-2.3,1.8-2.5,3.2c-0.2,1.3-0.2,2.5-0.2,3.8c0,7.2,0,14.5,0,21.8v0.8
	c-2.2,0.2-4.4,0.2-6.6,0c0-0.2,0-0.4,0-0.6c0-8.2,0-16.4,0-24.6c0-1.4,0.2-2.7,0.6-4c0.7-2.5,2.4-4.5,4.8-5.5
	c1.7-0.7,3.5-1.2,5.3-1.4c2.3-0.3,4.5-0.3,6.8-0.1c2,0.1,4,0.5,5.9,1.2c3.1,1.1,5.3,3.8,5.7,7.1c0.2,1,0.3,2.1,0.2,3.1
	c0,8,0,16,0,24v0.8C120.6,89.4,118.4,89.4,116.2,89.3z"/>
<path class="st0" d="M154.6,54.1c-0.4,1.9-0.8,3.8-1.1,5.8h-1.4c-4.4,0-8.8-0.1-13.1-0.1c-0.8,0-1.7,0.2-2.5,0.4
	c-1.3,0.3-2.2,1.3-2.3,2.6c-0.1,0.8,0,1.6,0.1,2.4c0.1,0.7,0.6,1.3,1.2,1.7c0.8,0.5,1.6,0.7,2.6,0.8c2.1,0.2,4.3,0.4,6.4,0.7
	c1.6,0.1,3.2,0.3,4.7,0.7c3.2,0.8,5.6,3.5,6,6.7c0.4,2,0.4,4.1,0,6.1c-0.6,2.7-2.4,5-5,6.1c-1.5,0.7-3.1,1.1-4.7,1.3
	c-2.3,0.2-4.5,0.3-6.8,0.2c-3.2,0-6.4,0-9.7-0.1c-0.4,0-0.8,0-1.2-0.1c0-0.3,0.1-0.6,0.1-0.9c0.3-1.5,0.6-3,0.9-4.4
	c0.1-0.5,0.1-0.5,0.6-0.5l12.2,0.1c1.5,0.1,3-0.1,4.4-0.3c0.3-0.1,0.6-0.2,0.9-0.3c0.8-0.3,1.5-1,1.7-1.8c0.4-1.2,0.4-2.5,0.1-3.8
	c-0.2-0.7-0.7-1.3-1.3-1.7c-0.7-0.4-1.5-0.7-2.4-0.8c-1.3-0.2-2.6-0.3-3.9-0.4c-2-0.2-3.9-0.3-5.9-0.6c-4.1-0.5-7.2-3.9-7.3-8.1
	c-0.1-1.5-0.1-3.1,0.2-4.6c0.6-3.2,3.1-5.8,6.3-6.6c1.6-0.5,3.4-0.8,5.1-0.8c4.1,0,8.2,0,12.3,0c0.8,0,1.7,0,2.5,0.1
	C154.3,54,154.5,54,154.6,54.1z"/>
<path class="st0" d="M215.9,38.6c-0.3,2-0.7,3.8-1.1,5.8h-0.6c-1.6,0-3.3-0.1-4.9,0c-0.9,0-1.8,0.1-2.6,0.3
	c-1.8,0.3-3.2,1.6-3.6,3.4c-0.2,0.8-0.4,1.7-0.4,2.5c-0.1,1-0.1,1.9-0.1,2.9c0,0.2,0,0.4,0.1,0.6c1.1,0,2.3,0,3.4,0h6.7
	c-0.1,2-0.5,3.9-1,5.8h-9.2c-0.1,1.3,0,2.5,0,3.7v25.7c-0.2,0-0.4,0.1-0.6,0.1h-5.5c-0.2,0-0.3,0-0.5-0.1c0-0.2,0-0.4,0-0.6
	c0-11.7,0-23.4,0-35.1c0-2.4,0.3-4.8,0.9-7.1c0.3-1,0.7-2,1.2-2.9c1.2-2.2,3.3-3.7,5.7-4.4c1.6-0.5,3.2-0.7,4.8-0.8
	c2.2-0.1,4.4,0,6.6,0C215.3,38.5,215.6,38.5,215.9,38.6z"/>
<path class="st0" d="M234.6,83.7c0,0-0.7,3.8-1.1,5.7c-0.2,0-4.9,0-7-0.1c-1.4,0-2.8-0.2-4.2-0.6c-2.9-0.6-5.2-3-5.6-6
	c-0.4-1.8-0.5-3.7-0.5-5.6V47.7c2.2-0.5,4.4-0.9,6.6-1.3V54c4.1,0,8.1,0,12.2,0l-1.1,5.8h-11c0,0.3-0.1,0.5-0.1,0.7
	c0,5.6,0,11.2,0,16.8c0,1.1,0.1,2.3,0.4,3.4c0.2,1.5,1.4,2.6,2.9,2.7c1,0.1,2.1,0.2,3.1,0.2C230.8,83.7,234.6,83.7,234.6,83.7z"/>
<path class="st0" d="M87.5,54.1v35.1c-2.2,0.2-4.4,0.2-6.5,0v-35C83.1,54,85.3,54,87.5,54.1z"/>
<path class="st0" d="M85.8,39.2c1.1,0.3,2,1.1,2.3,2.2c0.3,1.3,0.3,2.8,0,4.1c-0.2,1.1-1.1,2-2.3,2.2c-1.1,0.3-2.2,0.3-3.3,0
	c-1.1-0.2-2-1.1-2.3-2.2c-0.3-1.3-0.4-2.6-0.1-3.9c0.2-1.2,1.1-2.2,2.3-2.4C83.6,38.9,84.8,38.9,85.8,39.2z"/>
<path class="st0" d="M212,104.7c0,0.2-0.1,0.3-0.1,0.5c0,0.9,0.1,1.7,0.2,2.6c0.2,1.8,1.7,3.1,3.5,2.9c1.5,0.1,3.1,0,4.6,0
	c0.2,0,0.5,0,0.7,0c0.1,0.7,0,0.9-0.7,0.9c-1.4,0-2.8,0.1-4.1,0c-0.7,0-1.5-0.2-2.2-0.4c-1.3-0.3-2.4-1.4-2.7-2.7
	c-0.2-0.6-0.3-1.3-0.4-2c0-1.6,0-3.2,0.1-4.8c0-0.4,0.1-0.7,0.2-1.1c0.4-1.6,1.7-2.9,3.4-3.2c1.3-0.3,2.6-0.3,3.9,0
	c1.9,0.3,3.4,1.9,3.5,3.8c0.1,0.8,0.1,1.6,0.1,2.4s-0.2,1-1.1,1L212,104.7L212,104.7z M212,103.8h9.4c0.2-1.5-0.1-3-0.7-4.3
	c-0.4-0.6-1-1.1-1.7-1.3c-1.4-0.4-2.9-0.4-4.3,0c-0.9,0.2-1.6,0.8-2,1.7c-0.3,0.7-0.5,1.5-0.6,2.4
	C211.9,102.8,211.9,103.2,212,103.8L212,103.8z"/>
<path class="st0" d="M158.7,104.7c0,0.2-0.1,0.3-0.1,0.5c0,0.9,0.1,1.7,0.2,2.6c0.2,1.8,1.7,3.1,3.5,2.9c1.5,0.1,3.1,0,4.6,0
	c0.2,0,0.5,0,0.7,0c0.1,0.7,0,0.9-0.7,0.9c-1.4,0-2.8,0.1-4.1,0c-0.7,0-1.5-0.2-2.2-0.4c-1.3-0.3-2.4-1.4-2.7-2.7
	c-0.2-0.6-0.3-1.3-0.4-2c0-1.6,0-3.3,0.1-4.9c0-0.3,0.1-0.7,0.2-1c0.4-1.6,1.7-2.9,3.4-3.2c1.3-0.3,2.6-0.3,3.9,0
	c1.9,0.3,3.4,1.9,3.5,3.8c0.1,0.8,0.1,1.6,0.1,2.4s-0.2,1-1.1,1L158.7,104.7L158.7,104.7z M158.7,103.8c0.8,0.1,8.9,0.1,9.4-0.1
	c0.1-1.2,0-2.3-0.4-3.4c-0.4-1-1.2-1.8-2.3-2c-1.2-0.3-2.4-0.3-3.6-0.1c-1.4,0.1-2.6,1.2-2.9,2.6c-0.2,0.9-0.3,1.8-0.4,2.7
	C158.6,103.5,158.6,103.6,158.7,103.8L158.7,103.8z"/>
<path class="st0" d="M234.7,97.7c-0.1,0.3-0.1,0.6-0.2,0.8c-0.9,0-1.8,0-2.7,0c-1.2,0-2.4,0-3.6,0.1c-0.5,0-0.9,0.1-1.3,0.3
	c-0.7,0.2-1.3,0.8-1.3,1.6c-0.1,0.5-0.1,1,0,1.5c0.1,0.7,0.6,1.3,1.3,1.6c0.4,0.1,0.8,0.2,1.3,0.3c1.4,0.2,2.8,0.3,4.1,0.5
	c0.1,0,0.3,0.1,0.4,0.1c1.5,0.3,2.5,1.6,2.4,3.1c0,0.5,0,1-0.1,1.6c-0.1,0.9-0.8,1.7-1.6,2.1c-0.7,0.3-1.5,0.5-2.3,0.5
	c-2,0-3.9,0-5.9,0c-0.2,0-0.3,0-0.5-0.1c0-0.3,0.1-0.5,0.1-0.8h2.6c1.4,0,2.8,0,4.1-0.1c0.5-0.1,1.1-0.2,1.6-0.4
	c0.5-0.2,0.9-0.6,1-1.1c0.2-0.8,0.3-1.6,0.1-2.4c-0.1-0.7-0.6-1.3-1.3-1.4c-0.7-0.2-1.3-0.3-2-0.4c-1.1-0.2-2.2-0.2-3.3-0.4
	c-0.4-0.1-0.7-0.2-1.1-0.3c-1-0.3-1.7-1.1-1.8-2.2c-0.1-0.7-0.1-1.4,0-2.1c0.2-0.8,0.7-1.5,1.4-1.8c0.8-0.4,1.7-0.6,2.6-0.6
	c1.8,0,3.7,0,5.5,0C234.3,97.6,234.5,97.6,234.7,97.7z"/>
<path class="st0" d="M155.1,97.7c-0.1,0.3-0.1,0.6-0.2,0.8c-0.9,0-1.8,0-2.7,0c-1.2,0-2.4,0-3.6,0.1c-0.4,0-0.9,0.1-1.3,0.3
	c-0.8,0.2-1.3,0.8-1.4,1.6c-0.1,0.5-0.1,1,0,1.5c0.1,0.7,0.6,1.3,1.3,1.6c0.4,0.1,0.8,0.2,1.3,0.3c1.4,0.2,2.7,0.3,4.1,0.5
	c0.1,0,0.3,0.1,0.4,0.1c1.5,0.3,2.5,1.6,2.4,3.1c0,0.5,0,1-0.1,1.6c-0.1,0.9-0.8,1.7-1.6,2.1c-0.7,0.3-1.5,0.5-2.3,0.5
	c-2,0-3.9,0-5.9,0c-0.2,0-0.3,0-0.5-0.1c0.1-0.3,0.1-0.5,0.1-0.8h2.6c1.4,0,2.8,0,4.1-0.1c0.5,0,1.1-0.2,1.6-0.4
	c0.5-0.2,0.9-0.6,1-1.1c0.2-0.8,0.3-1.6,0.1-2.4c-0.1-0.7-0.6-1.3-1.2-1.4c-0.7-0.2-1.3-0.3-2-0.4c-1.1-0.2-2.2-0.2-3.3-0.4
	c-0.4-0.1-0.7-0.2-1.1-0.3c-1-0.3-1.7-1.1-1.8-2.1c-0.1-0.7-0.1-1.4,0-2.1c0.2-0.8,0.7-1.5,1.4-1.8c0.8-0.4,1.7-0.6,2.6-0.6
	c1.8,0,3.7,0,5.5,0C154.7,97.6,154.9,97.6,155.1,97.7z"/>
<path class="st0" d="M186.2,111.4l-5.4-13.7c0.8-0.2,0.9-0.2,1.2,0.5l4.5,11.5c0.1,0.2,0.2,0.5,0.3,0.8c0.3-0.1,0.3-0.3,0.4-0.5
	c1-2.4,1.9-4.9,2.9-7.3c0.6-1.4,1.1-2.9,1.7-4.3c0.3-0.7,0.3-0.7,1.1-0.6c-0.1,0.2-0.1,0.4-0.2,0.6c-1.7,4.2-3.3,8.4-5,12.6
	c-0.2,0.6-0.2,0.6-0.9,0.6L186.2,111.4z"/>
<path class="st0" d="M208.8,97.6c-0.1,0.3-0.1,0.6-0.2,0.8h-1c-1.4,0-2.7,0-4.1,0.1c-1.7,0-3.2,1.4-3.2,3.1c-0.3,1.9-0.3,3.8,0,5.7
	c0.3,1.8,1.2,3,3.7,3.2c1.3,0.1,2.7,0,4,0h0.7c0,0.2-0.1,0.3-0.1,0.5c0,0.3-0.2,0.4-0.5,0.4s-0.7,0-1.1,0c-1.2,0-2.5,0-3.7-0.1
	c-0.4,0-0.9-0.1-1.3-0.3c-1.3-0.4-2.3-1.5-2.6-2.8c-0.2-0.6-0.3-1.1-0.3-1.7c0-1.4,0-2.8,0-4.3c0-0.6,0.2-1.2,0.4-1.8
	c0.4-1.3,1.4-2.3,2.7-2.6c0.7-0.2,1.4-0.3,2.1-0.4c1.3,0,2.6,0,3.8,0C208.5,97.6,208.6,97.6,208.8,97.6z"/>
<path class="st0" d="M179.4,97.6c-0.1,0.3-0.1,0.6-0.2,0.8h-0.9c-0.9,0-1.8,0-2.8,0c-1.4-0.1-2.6,1-2.7,2.4v0.1
	c-0.1,0.6-0.1,1.2-0.1,1.8c0,2.6,0,5.2,0,7.8v0.8c-0.2,0-0.3,0.1-0.5,0.1s-0.4-0.1-0.4-0.3V111c0-0.2,0-0.3,0-0.5v-8.2
	c0-0.8,0.1-1.6,0.3-2.4c0.3-1.3,1.4-2.2,2.7-2.3c0.6-0.1,1.1-0.1,1.7-0.1c0.8,0,1.5,0,2.3,0C178.9,97.6,179.1,97.6,179.4,97.6z"/>
<path class="st0" d="M196,97.7v13.7h-0.8V97.7H196z"/>
<path class="st0" d="M194.8,93.6c0-0.6,0.3-0.9,0.8-0.9c0.4,0,0.8,0.3,0.9,0.7c0,0.1,0,0.2,0,0.2c0,0.6-0.3,0.8-0.9,0.8
	S194.8,94.2,194.8,93.6z"/>
<g class="st1">
	
		<linearGradient id="SVGID_1_" gradientUnits="userSpaceOnUse" x1="15.73" y1="684.9438" x2="42.49" y2="684.9438" gradientTransform="matrix(1 0 0 1 0 -616)">
		<stop  offset="0" style="stop-color:#B4D232"/>
		<stop  offset="1" style="stop-color:#82C878"/>
	</linearGradient>
	<path class="st2" d="M42.6,90.9c-0.6,3.3-3.8,5.6-7.1,5c-3.1-0.5-5.2-3.3-5.1-6.4c0-5.3-0.1-16.5-1.6-20.9
		c-1.4-4.2-8.9-12.8-12.4-16.9c-2.1-2.7-1.7-6.6,0.9-8.7c0.5-0.4,1.1-0.7,1.7-1c3.6-1.2,12.5,7.9,16.5,13.6c2,2.7,3.6,5.7,4.8,8.8
		c1.1,3.1,1.7,6.4,2,9.7C42.8,79.7,42.8,85.3,42.6,90.9z"/>
</g>
<g class="st3">
	
		<linearGradient id="SVGID_2_" gradientUnits="userSpaceOnUse" x1="15.46" y1="667.6233" x2="70.77" y2="667.6233" gradientTransform="matrix(1 0 0 1 0 -616)">
		<stop  offset="0" style="stop-color:#919696"/>
		<stop  offset="3.000000e-02" style="stop-color:#8B9293"/>
		<stop  offset="0.16" style="stop-color:#7A8489"/>
		<stop  offset="0.31" style="stop-color:#6D7A82"/>
		<stop  offset="0.52" style="stop-color:#66757E"/>
		<stop  offset="1" style="stop-color:#64737D"/>
	</linearGradient>
	<path class="st4" d="M20.1,53.8c-3.4-0.6-5.6-3.8-5-7.2s3.8-5.6,7.2-5l43.9,7.8c3.4,0.5,5.7,3.6,5.3,7c-0.5,3.4-3.6,5.7-7,5.3
		c-0.2,0-0.3-0.1-0.5-0.1L20.1,53.8z"/>
</g>
<g class="st3">
	
		<linearGradient id="SVGID_3_" gradientUnits="userSpaceOnUse" x1="32.2604" y1="687.9894" x2="71.9492" y2="687.9894" gradientTransform="matrix(1 3.490658e-04 -3.490658e-04 1 -0.87 -615.3412)">
		<stop  offset="0" style="stop-color:#B9D2E1"/>
		<stop  offset="1" style="stop-color:#FFFFFF"/>
	</linearGradient>
	<path class="st5" d="M41.4,93.7c-2.2,2.6-6.1,3-8.7,0.8s-2.9-6.1-0.8-8.7l28.7-34.2c2.2-2.6,6.3-3,8.9-0.7c2.5,2.2,2.8,6,0.7,8.6
		L41.4,93.7z"/>
</g>
</svg>
