<svg xmlns="http://www.w3.org/2000/svg" xmlns:xlink="http://www.w3.org/1999/xlink" viewBox="0 0 1275.6 566.9" xmlns:v="https://vecta.io/nano"><path d="M955.1 267.6c0 7.4.3 14.8-.1 22.2-.5 11.3-2 22.4-5.9 33.1-6.3 17.4-18.5 28.1-36.5 32.2-12.2 2.8-24.7 3.3-37.1 3-9.4-.2-18.8-1.2-28-3.4-17.5-4.4-29.1-15.2-35.2-32.1-3-8.3-4.5-16.8-5.3-25.5-1.5-17.4-1.1-34.8-.5-52.2.3-10.6 1.9-21.2 5.4-31.3 6.3-18.6 19-29.9 38.2-33.9 12.6-2.6 25.3-3.3 38.1-2.7 8.1.3 16.2 1.1 24.1 2.9 20.4 4.6 32.8 17.4 38.5 37.2 2.6 9.2 3.9 18.6 4.3 28.2.2 7.3 0 14.8 0 22.3zm-32.5.1h.4l-1.1-30c-.3-5.9-1.3-11.7-3.5-17.2-3-7.4-8.3-12.1-16.1-13.9-11.2-2.5-22.5-2.1-33.9-1.4-3.2.2-6.4.8-9.6 1.5-5.1 1.1-9.4 3.7-12.5 8-2.1 2.8-3.4 6-4.4 9.3-2 6.9-2.7 13.9-2.9 21-.3 17.5-.8 35 .5 52.5.4 5.5 1.3 10.9 3.2 16 3.1 8.4 9 13.5 17.8 15.1 12.8 2.3 25.6 2.2 38.4.4 11-1.5 17.9-7.8 20.8-18.5 1.9-7.2 2.6-14.5 2.8-21.9.2-6.9.1-13.9.1-20.9zm-327.3 84.7V238.7c0-4.7-.4-9.5-1-14.2-1-7.8-5.3-13.2-12.6-16.1-4.1-1.6-8.4-2.4-12.7-2.9-9.6-1-19.2-1-28.8.6-3.3.5-6.5 1.4-9.6 2.6-7 2.8-11 8.2-11.9 15.6-.7 6.1-1.1 12.3-1.1 18.5v109.3c-2.5 1-28.6 1.1-31.8.2 0-.9-.1-1.9-.1-2.9V230.5c0-6.6.9-13.1 2.8-19.5 3.6-12.4 11.4-21.3 23.1-26.6 8.2-3.7 16.9-5.6 25.8-6.6 11-1.3 22-1.4 33.1-.6 9.7.8 19.3 2.4 28.4 6 15.8 6.1 24.7 17.8 27.5 34.3.8 5 1.2 10.1 1.2 15.1l.1 119.6c-2.9.8-28.2 1-32.4.2zm185.6-170.1l-5.4 27.9h-6.9l-63.5-.4c-4 0-8.1.9-12 1.8-6.5 1.6-10.2 6.2-10.9 12.7-.4 3.9 0 7.9.4 11.8.4 3.6 2.7 6.2 5.8 8.1 3.8 2.3 8 3.5 12.3 4l31.1 3.2c7.6.8 15.4 1.2 22.8 3.4 16.3 5 26.1 15.7 29 32.5 1.7 9.8 1.9 19.6-.2 29.3-3 13.8-11.1 23.6-23.8 29.7-7.2 3.5-14.9 5.2-22.8 6.2-10.9 1.4-21.9.9-32.8.9-15.6 0-31.2-.2-46.8-.4-1.9 0-3.8-.2-6-.3a98.32 98.32 0 0 1 .6-4.1l4.2-21.5c.5-2.4.6-2.4 3-2.4l59 .6c7.2.1 14.4-.1 21.5-1.7 1.5-.3 2.9-.8 4.4-1.3 4.1-1.6 6.9-4.5 8.3-8.7 1.9-6 1.9-12.2.4-18.3-.9-3.6-3.2-6.3-6.3-8.2-3.5-2.2-7.4-3.3-11.4-3.8-6.3-.8-12.7-1.3-19-1.9-9.5-1-19-1.7-28.4-3.1-20.4-3.1-34.3-18.5-35.5-39.1-.4-7.4-.7-14.8.9-22.1 3.7-16.7 14.1-27.2 30.3-32 8-2.4 16.2-3.6 24.6-3.6l59.3.1c4 0 8.1.3 12.1.4.4.1.9.2 1.7.3zm296.6-75c-1.4 9.4-3.5 18.4-5.2 27.8h-3c-7.9 0-15.8-.3-23.7 0-4.2.1-8.5.8-12.6 1.6-9.2 1.8-15.1 7.5-17.6 16.5-1.1 4-1.8 8.1-2.2 12.2-.5 4.6-.5 9.3-.7 14 0 .8.2 1.6.4 2.7l16.4.1h32.4c.5 2.5-2.9 21.6-4.9 28.3h-44.1c-.3 6.1-.1 12-.2 17.8v124.1c-1.1.2-1.9.4-2.8.4h-26.4c-.8 0-1.6-.2-2.6-.3-.1-1.1-.2-2.1-.2-3.1V179.8c0-11.6 1-23.1 4.1-34.3 1.3-4.9 3.2-9.6 5.7-14 6.2-10.9 15.7-17.5 27.5-21.1 7.6-2.3 15.4-3.5 23.3-3.7 10.6-.3 21.3-.1 31.9 0 1.4.1 2.8.4 4.5.6zm90.4 218.2l-5.4 27.4c-1.2.1-23.6 0-33.9-.3-6.8-.2-13.5-1.2-20.1-2.9-15.2-4-24.1-13.7-27.3-29-1.8-8.9-2.5-17.8-2.5-26.9V151.2c10.5-2.3 21-4.2 32-6.3v37l59 .1-5.5 28.2h-53.3c-.1 1.3-.3 2.3-.3 3.2l.1 81.5c0 5.4.8 10.9 1.7 16.3 1.4 7.7 6.5 12 14.1 13 5 .7 10.1 1 15.1 1.1 7.8.3 26.3.2 26.3.2zM456.3 182.3v169.8c-2.4.9-28.5 1-31.6.1V182.6c2.2-.7 26-.9 31.6-.3zm-7.9-72c4.8 1.4 9.5 4.8 11 10.6 1.7 6.6 1.7 13.2.1 19.8-1.5 5.8-5.2 9.5-11 10.9-5.3 1.3-10.6 1.3-15.9 0-5.9-1.4-9.6-5-11.1-10.8-1.6-6.3-1.7-12.6-.2-18.9 1.8-7.4 6.2-10.4 11.3-11.6 5-1.2 11-1.3 15.8 0zm609.9 316.5c-.2.9-.5 1.6-.4 2.3.3 4.1.4 8.3 1.2 12.4 1.8 9.2 7.2 13.8 17 14.2 7.5.3 15 .1 22.5.1h3.6c.5 3.6 0 4.3-3.2 4.3-6.7.1-13.4.3-20 0-3.5-.1-7.1-.8-10.4-1.7-6.8-1.9-11.1-6.5-13-13.2-.9-3.2-1.6-6.6-1.7-9.8-.1-7.8.2-15.6.4-23.4.1-1.8.6-3.6 1.1-5.3 2.4-8.4 7.8-13.5 16.4-15.2 6.2-1.2 12.5-1.2 18.7.1 10 2.1 15.5 8 16.9 18.5.5 3.9.6 7.9.6 11.8 0 4-1.1 4.9-5.2 5h-40.7c-1.3-.1-2.5-.1-3.8-.1zm-.1-4.1h45.5c.2-7.3.5-14.3-3.5-20.7-1.9-3.2-4.9-5.2-8.4-6.1-7-1.8-14-2-21-.1-4.5 1.2-7.7 3.9-9.7 8-1.8 3.6-2.6 7.5-2.8 11.4-.2 2.5-.1 4.9-.1 7.5zm-257.5 4.1c-.2.9-.5 1.6-.4 2.3.3 4.1.4 8.3 1.2 12.4 1.8 9.2 7.2 13.8 17 14.2 7.5.3 15 .1 22.5.1h3.6c.5 3.6 0 4.3-3.2 4.3-6.7.1-13.4.3-20 0-3.5-.1-7.1-.8-10.4-1.7-6.8-1.9-11.1-6.5-13-13.2-.9-3.2-1.6-6.6-1.7-9.8-.1-7.9.2-15.8.4-23.7.1-1.7.6-3.4 1.1-5 2.4-8.4 7.8-13.5 16.4-15.2 6.2-1.2 12.5-1.2 18.7 0 10 2.1 15.5 8 16.9 18.5.5 3.9.6 7.9.6 11.8 0 4-1.1 4.9-5.2 5h-44.5zm-.1-4.2c3.7.6 43 .5 45.4-.3.2-5.6.3-11.2-1.7-16.6-1.9-5.2-5.5-8.6-11-9.9-5.7-1.4-11.4-1.4-17.2-.6-7.6 1.1-12.4 5.3-14.2 12.6-1 4.2-1.2 8.6-1.7 12.9 0 .6.3 1.3.4 1.9zm367.7-29.6l-.9 3.7h-12.9l-17.6.4c-2.2.1-4.4.6-6.5 1.3-3.7 1.2-5.9 3.9-6.4 7.7-.3 2.4-.3 4.9.1 7.2.5 3.7 2.8 6.3 6.3 7.5 2 .7 4.1 1.1 6.2 1.4 6.6.9 13.3 1.6 19.9 2.4.7.1 1.4.3 2.1.5 7.8 2.3 11.4 6.9 11.4 15.1 0 2.5-.2 5.1-.6 7.5-.7 4.8-3.5 8.1-7.9 10-3.6 1.6-7.4 2.3-11.2 2.3h-28.6c-.7 0-1.4-.2-2.4-.3.2-1.4.4-2.6.6-3.8h12.4c6.7-.1 13.4 0 20-.4 2.6-.1 5.2-.9 7.6-1.8 2.4-.8 4-2.8 4.7-5.2 1.2-3.8 1.3-7.8.5-11.7-.6-3.5-2.7-6-6.1-7-3.1-.9-6.3-1.5-9.5-1.9l-16-1.9c-1.8-.2-3.6-.8-5.3-1.4-4.8-1.8-7.9-5.1-8.7-10.4-.5-3.4-.6-6.8.2-10.3.9-4 3.2-6.9 6.9-8.8 3.9-2 8.1-2.7 12.3-2.8 8.9-.2 17.8 0 26.7 0 .8.3 1.5.5 2.7.7zm-385.2 0l-.8 3.7h-12.9l-17.6.4c-2.1.1-4.2.6-6.2 1.2-3.9 1.2-6.2 3.9-6.7 7.8-.3 2.4-.3 4.9.1 7.2.5 3.7 2.8 6.3 6.3 7.5 2 .7 4.1 1.1 6.2 1.4 6.6.9 13.3 1.6 19.9 2.4.7.1 1.4.3 2.1.5 7.8 2.3 11.4 6.9 11.4 15.1 0 2.5-.2 5.1-.6 7.5-.7 4.8-3.5 8.1-7.9 10-3.6 1.6-7.4 2.3-11.2 2.3h-28.6c-.7 0-1.4-.2-2.5-.3a157.93 157.93 0 0 1 .6-3.8h12.4c6.7-.1 13.4 0 20-.4 2.6-.1 5.2-.9 7.6-1.8 2.4-.8 4-2.8 4.7-5.2 1.2-3.8 1.3-7.8.5-11.7-.6-3.5-2.7-6-6.1-7-3.1-.9-6.3-1.5-9.5-1.9l-16-1.9c-1.8-.2-3.6-.8-5.3-1.4-4.8-1.8-7.9-5.1-8.7-10.4-.5-3.4-.6-6.8.2-10.3.9-4 3.2-6.9 6.9-8.8 3.9-2 8.1-2.7 12.3-2.8 8.9-.2 17.8 0 26.7 0 .8.3 1.5.5 2.7.7zM934 459.7l-26.3-66.2c4-1.2 4.5-.9 5.8 2.3l21.8 55.4 1.5 3.7c1.5-.4 1.5-1.7 1.9-2.6l13.8-35.4 8.1-20.9c1.3-3.4 1.4-3.4 5.6-2.7l-1 2.7-24.2 61c-1.2 3-1.2 3-4.4 2.9-.7 0-1.5-.1-2.6-.2zm109.2-66.8l-.8 4h-4.7c-6.6.1-13.2-.3-19.7.5-9.7 1.2-14 5.5-15.6 15a84.59 84.59 0 0 0 0 27.5c1.3 8.5 5.6 14.8 17.9 15.7 6.4.5 13 .1 19.4.2h3.5a40.14 40.14 0 0 1-.3 2.2c-.1 1.5-.9 2.1-2.4 2.1-1.7 0-3.4.1-5.2.1l-17.9-.6c-2.1-.1-4.2-.7-6.2-1.4-6.6-2.2-10.7-6.9-12.4-13.5-.7-2.7-1.3-5.6-1.3-8.4-.2-6.9-.2-13.8.1-20.7.1-3 .9-6 1.8-8.9 2-6.4 6.4-10.8 13-12.5 3.3-.9 6.7-1.6 10.1-1.7 6.2-.3 12.4-.1 18.5 0l2.2.4zm-142.6 0l-1 4H895c-4.4 0-8.9-.1-13.3.1-7.8.4-12 4.5-12.9 12.3-.3 2.8-.5 5.6-.5 8.5v41.7c-1 .2-1.6.3-2.3.4-1.2.1-1.9-.5-1.9-1.8v-41.9c0-3.9.2-7.9 1.4-11.7 2-6.5 6.3-10.2 12.9-11.3 2.7-.4 5.4-.6 8.2-.7 3.6-.1 7.3 0 10.9 0 .9.1 1.9.3 3.1.4zm80.7.3v66.4h-4.1v-66.4h4.1zm-6.1-19.6c0-2.9 1.3-4.1 4-4.1 2.8 0 4.2 1.5 4.1 4.4-.1 2.8-1.4 4-4.2 3.9s-3.9-1.3-3.9-4.2z" fill-rule="evenodd" fill="#556978"/><g opacity=".9"><defs><path id="A" d="M239.3 360.3c-1.6 10.4-9.1 18.6-19 22.5-15.5 6.1-39.9-3.2-39.9-29.1s-.6-80-7.7-101.1c-6.9-20.2-43.2-61.8-60.2-81.9-14.7-18.8-3.2-41.3 12.8-47 17.3-6 60.4 38.2 79.9 65.8 9.3 13.1 17.9 27.7 23.4 42.5 5.3 14.5 8.2 31 9.7 46.7 3.1 34.1 1 81.6 1 81.6z"/></defs><linearGradient id="B" gradientUnits="userSpaceOnUse" x1="109.395" y1="253.948" x2="238.823" y2="253.948"><stop offset="0" stop-color="#b4d232"/><stop offset="1" stop-color="#82c878"/></linearGradient><use xlink:href="#A" fill="url(#B)"/></g><g opacity=".9"><defs><path id="C" d="M130.4 181.2c-16.2-2.9-27.1-18.4-24.2-34.6s18.4-27.1 34.6-24.2l212.4 37.8c16.2 2.9 27.1 18.4 24.2 34.6s-18.4 27-34.6 24.2l-212.4-37.8z" opacity=".9"/></defs><linearGradient id="D" gradientUnits="userSpaceOnUse" x1="108.086" y1="170.74" x2="375.547" y2="170.74"><stop offset="0" stop-color="#556978"/><stop offset="1" stop-color="#646e78"/></linearGradient><use xlink:href="#C" fill="url(#D)"/></g><g opacity=".65"><defs><path id="E" d="M233.1 373.9c-11.8 13.5-30.9 13.6-42 3.9-12.2-10.6-14.3-29.5-3.7-42.1l137.9-165.2c10.5-12.6 29.3-14.3 42-3.8 12.6 10.5 14.3 29.3 3.8 42l-138 165.2z"/></defs><linearGradient id="F" gradientUnits="userSpaceOnUse" x1="184.001" y1="272.196" x2="374.366" y2="272.248"><stop offset="0" stop-color="#96969b"/><stop offset="1" stop-color="#5a7d91"/></linearGradient><use xlink:href="#E" fill="url(#F)"/></g></svg>