<?xml version="1.0" encoding="UTF-8"?>
<!-- Generator: Adobe Illustrator 24.1.2, SVG Export Plug-In . SVG Version: 6.00 Build 0)  -->
<svg version="1.1" id="Layer_1" xmlns="http://www.w3.org/2000/svg" xmlns:xlink="http://www.w3.org/1999/xlink" x="0px" y="0px" viewBox="0 0 100 99.8" style="enable-background:new 0 0 100 99.8;" xml:space="preserve">
<path d="M97.6,44.1L64.7,11.2c-3.1-3.2-8.2-3.4-11.4-0.3C50.1,14,50,19.1,53,22.3c0.1,0.1,0.2,0.2,0.3,0.3L72.8,42H8.1  C3.6,42,0,45.6,0,50.1s3.6,8.1,8.1,8.1h64.5L53.3,77.4c-3.1,3.2-2.9,8.3,0.3,11.4c3.1,3,8,3,11.1,0l32.9-32.9  c1.5-1.5,2.4-3.6,2.4-5.7c0-0.1,0-0.1,0-0.2c0-0.1,0-0.1,0-0.2C100,47.7,99.2,45.6,97.6,44.1z"/>
</svg>