<svg id="Layer_1" data-name="Layer 1" xmlns="http://www.w3.org/2000/svg" viewBox="0 0 1000 1000"><defs><style>.cls-1{fill:#334755;}</style></defs><title>Artboard 1</title><path class="cls-1" d="M966,235.57c-7.68-13-22.71-25.55-37.75-29-16.19-3.68-34.27-2.84-48.57,6.31-4.21,3.26-8.52,6.63-12.73,9.88a64.83,64.83,0,0,0-16.19,28l-.48,1.38a459.06,459.06,0,0,0-32.22-40.6C770.43,158.08,709,119,642.26,94.26,608.19,81.64,572.87,75,536.8,71.13c-37.12-4-73.6-1.27-110.4,4.2C388,81,352,93.42,316.52,109c-34.69,15.24-65.61,36.17-95,59.83-29,23.34-53.2,51.1-75.39,81S107.6,312.54,93.72,347c-2.94,7.36-5.68,14.72-8.09,22.29-5,15-1.48,35.22,6.3,48.57,7.68,13,22.72,25.55,37.75,29,16.19,3.68,34.28,2.84,48.58-6.31s23.66-21.55,29-37.74q3.39-10.07,7.27-19.95A382,382,0,0,1,255.38,313a376.58,376.58,0,0,1,53.83-53.88,375.82,375.82,0,0,1,69.25-40.51,373.9,373.9,0,0,1,79.09-21.39,374.87,374.87,0,0,1,79.74,0A374,374,0,0,1,615.8,218.6a376.37,376.37,0,0,1,69.54,40.65,377,377,0,0,1,53.74,53.51c-5.92-2.07-11.84-4.14-17.86-6.22-14.82-5.15-35.43-1.36-48.57,6.31s-25.55,22.71-29,37.75c-3.68,16.19-2.84,34.28,6.31,48.58,3.26,4.2,6.62,8.51,9.88,12.72a62.78,62.78,0,0,0,27.86,16.19q67.19,23.51,134.48,47c6.31,2.21,12.62,4.42,19,6.63a48.56,48.56,0,0,0,19.62,2,52.28,52.28,0,0,0,11-1.49,47.09,47.09,0,0,0,17.93-6.87l3.84-3a64.09,64.09,0,0,0,7.61-5.92l1.27-1a62.84,62.84,0,0,0,16.2-27.86q23.49-67.18,47-134.48c2.21-6.31,4.42-12.62,6.63-19C977.46,269.32,973.68,248.72,966,235.57Z"/><path class="cls-1" d="M791.88,599.9c-2.84,8.41-6.1,16.82-9.46,25,2.1-5,4.2-10.09,6.31-15a374.57,374.57,0,0,1-48.47,82.85c3.25-4.21,6.62-8.52,9.88-12.72A378.39,378.39,0,0,1,684,746.15l12.73-9.88a375.87,375.87,0,0,1-82.33,48.05c5-2.1,10.09-4.2,15-6.31a379.33,379.33,0,0,1-95.26,25.87L551,801.67a374.89,374.89,0,0,1-97.68-.1c5.57.73,11.14,1.47,16.82,2.2a374.28,374.28,0,0,1-94.53-26c5.05,2.11,10.1,4.21,15,6.31a376.41,376.41,0,0,1-82.54-48.47c4.21,3.26,8.52,6.62,12.72,9.88a376.57,376.57,0,0,1-65.92-66c3.26,4.21,6.62,8.52,9.88,12.72A371.54,371.54,0,0,1,216.85,610c2.1,5,4.2,10.1,6.3,15a386.43,386.43,0,0,1-20-62.56c-3.37-15-15.88-30.07-29-37.75-13.57-7.89-33.44-11.25-48.58-6.31s-30,14.41-37.75,29A68.4,68.4,0,0,0,81.52,596c16.2,71.39,51.63,137.21,100,191.89,47.31,53.41,108.51,92.31,175,117.34,33.85,12.72,68.87,19.34,104.62,23.44,36.8,4.21,73,1.58,109.56-3.57,38.59-5.47,74.54-17.66,110.29-33,34.81-14.93,65.61-35.64,95.26-59C805.44,810,829.52,782.64,851.92,753c22.6-29.86,39-62.67,53.31-97.16,3-7.36,5.78-14.72,8.41-22.29,5.15-14.93,1.47-35.32-6.31-48.57-7.68-13-22.71-25.55-37.75-29-16.19-3.68-34.27-2.84-48.57,6.31s-23.56,21.45-29.13,37.64Z"/><path class="cls-1" d="M350.17,600.74c-3.26-4.21-6.62-8.52-9.88-12.72a62.87,62.87,0,0,0-27.87-16.2q-67.19-23.49-134.48-47c-6.31-2.2-12.61-4.41-19-6.62A47.61,47.61,0,0,0,133.78,517a47.12,47.12,0,0,0-23.45,7.47c-4.2,3.26-8.51,6.62-12.72,9.88a62.76,62.76,0,0,0-16.19,27.87C65.65,606.94,50,651.84,34.31,696.63c-2.2,6.31-4.41,12.62-6.62,19-5.15,14.83-1.37,35.44,6.31,48.58s22.71,25.55,37.75,29c16.19,3.68,34.27,2.84,48.57-6.31l12.73-9.88a62.62,62.62,0,0,0,16.29-27.87q15.75-45,31.48-90.07,39.52,13.8,79,27.62c6.31,2.21,12.62,4.41,19,6.62,14.83,5.15,35.43,1.37,48.58-6.31s25.55-22.71,29-37.74C360.16,633.12,359.32,615,350.17,600.74Z"/></svg>