<svg id="Layer_1" data-name="Layer 1" xmlns="http://www.w3.org/2000/svg" viewBox="0 0 1000 1000"><defs><style>.cls-1{fill:#334755;fill-rule:evenodd;}</style></defs><title>Artboard 1 copy</title><path class="cls-1" d="M902.38,97.62H97.62a18.72,18.72,0,0,0-18.71,18.72v355.6a18.71,18.71,0,0,0,18.71,18.7H902.38a18.71,18.71,0,0,0,18.71-18.7V116.34A18.72,18.72,0,0,0,902.38,97.62ZM855.59,453.21H144.41a9.36,9.36,0,1,1,0-18.71H855.59a9.36,9.36,0,1,1,0,18.71Z"/><path class="cls-1" d="M181.84,565.5a84.22,84.22,0,1,1-84.22,84.21,84.22,84.22,0,0,1,84.22-84.21"/><path class="cls-1" d="M818.16,565.5a84.22,84.22,0,1,1-84.22,84.21,84.22,84.22,0,0,1,84.22-84.21"/><path class="cls-1" d="M500,565.5a84.22,84.22,0,1,1-84.22,84.21A84.22,84.22,0,0,1,500,565.5"/><path class="cls-1" d="M78.91,855.59h0a102.93,102.93,0,0,1,205.86,0v46.82H78.91Z"/><path class="cls-1" d="M397.07,855.59h0a102.93,102.93,0,0,1,205.85,0v46.82H397.07Z"/><path class="cls-1" d="M715.22,855.59h0a102.94,102.94,0,0,1,205.87,0v46.82H715.22Z"/></svg>