<svg id="Layer_1" data-name="Layer 1" xmlns="http://www.w3.org/2000/svg" xmlns:xlink="http://www.w3.org/1999/xlink" viewBox="0 0 1000 1000"><defs><style>.cls-1{fill:url(#linear-gradient);}.cls-2{fill:#334755;}.cls-3{fill:#4d4d4f;}</style><linearGradient id="linear-gradient" x1="541.77" y1="564.23" x2="952.18" y2="564.23" gradientUnits="userSpaceOnUse"><stop offset="0" stop-color="#c80000"/><stop offset="1" stop-color="#c80000"/></linearGradient></defs><title>Artboard 1 copy 3</title><path class="cls-1" d="M580.64,365.62A149,149,0,0,1,623,319a188.87,188.87,0,0,1,58.68-28,239.37,239.37,0,0,1,66.07-9.33q50.54,0,85.51,15.54t56.35,37.7q21.38,22.15,30.7,47.41t9.33,45.48q0,40.43-19.82,70.73t-59.46,43.53v1.55q49,10.89,75.4,46.26t26.42,86.66q0,43.55-17.48,75.4a159.72,159.72,0,0,1-46.26,52.86,206.25,206.25,0,0,1-65.29,31.48,268.89,268.89,0,0,1-74.62,10.49A299.8,299.8,0,0,1,672,837.06a198.41,198.41,0,0,1-66.08-30.7,157.9,157.9,0,0,1-46.63-52.86q-17.49-31.86-17.49-76.18,0-52.07,26.82-87.05t75.78-46.65v-1.55q-39.64-10.87-59.85-41.19t-20.21-70.74Q564.31,393.62,580.64,365.62ZM659.92,710a91,91,0,0,0,20.6,29.14,89,89,0,0,0,30.7,18.66,106.6,106.6,0,0,0,37.31,6.61,99.53,99.53,0,0,0,36.92-6.61A91.72,91.72,0,0,0,815,739.11,81.84,81.84,0,0,0,834.81,710a97.42,97.42,0,0,0,7-37.31,83.2,83.2,0,0,0-7.38-35.37,85.39,85.39,0,0,0-20.21-27.59,90.27,90.27,0,0,0-29.53-17.88,103,103,0,0,0-36.15-6.22q-40.42,0-68.4,22.15t-28,64.13Q652.15,692.87,659.92,710Zm29.54-216.48q24.87,18.27,58.29,18.26,35,0,58.3-18.26t23.32-53.24a101.32,101.32,0,0,0-3.11-23.71,65.58,65.58,0,0,0-12-24.49q-8.94-11.66-24.87-19.43t-41.59-7.77a98.87,98.87,0,0,0-31.48,5,86.25,86.25,0,0,0-26.81,14.38,64.74,64.74,0,0,0-18.27,23.32q-6.62,14-6.61,32.65Q664.58,475.23,689.46,493.49Z"/><path class="cls-2" d="M672,837.06a198.41,198.41,0,0,1-66.08-30.7,159.14,159.14,0,0,1-23.56-20.85q-53.93,41.93-124,75.13C328,798.75,240.87,715.05,192.45,605.26c-44.56-101-57.06-225.49-38.08-379.95C261,161,361.21,129.73,460,129.73s199,31.3,305.61,95.58q3.58,29.35,5.64,57.29,35.47,2.85,62,14.62A201.47,201.47,0,0,1,871.32,319a1243.44,1243.44,0,0,0-11.64-129.91l-3.15-22.43-19.11-12.14C579.92-9,340.06-9,82.56,154.52L63.44,166.66,60.3,189.09C34.6,372.66,48.5,521.73,102.78,644.81c61.14,138.6,171,241.49,335.72,314.53l19.85,8.8,19.86-8.8q113.43-50.28,194.62-122.07Z"/><path class="cls-3" d="M850.36,543.19l.3-1.23-.3.11Z"/></svg>